<svg width="386" height="201" viewBox="0 0 386 201" fill="none" xmlns="http://www.w3.org/2000/svg">
<rect width="386" height="201" rx="14" fill="white"/>
<path d="M16 17H370V156C370 169.807 358.807 181 345 181H41C27.1929 181 16 169.807 16 156V17Z" fill="url(#paint0_linear_1505_2)"/>
<path d="M16 17.5V159C16 172.807 27.1929 184 41 184H345.5C359.307 184 370.5 172.807 370.5 159V17.5" stroke="url(#paint1_linear_1505_2)" stroke-width="8"/>
<path d="M44 118V137.5C44 151.307 55.1929 162.5 69 162.5H317.5C331.307 162.5 342.5 151.307 342.5 137.5V118C342.5 104.193 331.307 93 317.5 93H69C55.1929 93 44 104.193 44 118Z" fill="#E0FDFF" stroke="black" stroke-width="8"/>
<g clip-path="url(#clip0_1505_2)">
<path d="M186.5 137.035L178.982 129.517C178.137 128.672 176.772 128.672 175.927 129.517C175.082 130.362 175.082 131.727 175.927 132.572L184.983 141.628C185.828 142.473 187.193 142.473 188.038 141.628L210.962 118.705C211.807 117.86 211.807 116.495 210.962 115.65C210.117 114.805 208.752 114.805 207.907 115.65L186.5 137.035Z" fill="black"/>
</g>
<defs>
<linearGradient id="paint0_linear_1505_2" x1="193" y1="17" x2="193" y2="181" gradientUnits="userSpaceOnUse">
<stop stop-color="#F5F5F5" stop-opacity="0"/>
<stop offset="0.14375" stop-color="#F5F5F5"/>
</linearGradient>
<linearGradient id="paint1_linear_1505_2" x1="193.25" y1="17" x2="193.25" y2="184" gradientUnits="userSpaceOnUse">
<stop stop-opacity="0"/>
<stop offset="0.133333"/>
</linearGradient>
<clipPath id="clip0_1505_2">
<rect width="52" height="52" fill="white" transform="translate(167 102)"/>
</clipPath>
</defs>
</svg>
